<svg width="22" height="22" fill="none" xmlns="http://www.w3.org/2000/svg"><g clip-path="url(#clip0)"><path d="M19.193 1.603a5.486 5.486 0 00-7.75 0l-8.161 8.16a.644.644 0 10.912.912l8.16-8.16c1.584-1.583 4.343-1.583 5.927 0a4.196 4.196 0 010 5.926L6.886 19.964c-.974.974-2.672.974-3.647 0a2.581 2.581 0 010-3.647L14.178 5.25a.99.99 0 011.367 0 .969.969 0 010 1.368L5.063 17.23c-.217.217-.217.694 0 .911.252.252.66.252.912 0L16.457 7.53c.88-.88.88-2.311 0-3.191-.853-.853-2.34-.852-3.19 0L2.326 15.405c-1.496 1.497-1.496 3.974 0 5.47A3.835 3.835 0 005.063 22a3.833 3.833 0 002.735-1.125L19.193 9.352a5.486 5.486 0 000-7.75z" fill="#2C14B2"/></g><defs><clipPath id="clip0"><path fill="#fff" d="M0 0h22v22H0z"/></clipPath></defs></svg>